<svg width="40" height="40" viewBox="0 0 40 40" fill="none" xmlns="http://www.w3.org/2000/svg">
<circle cx="20" cy="20" r="17.25" stroke="#30261D" stroke-width="1.5"/>
<mask id="mask0" mask-type="alpha" maskUnits="userSpaceOnUse" x="2" y="2" width="36" height="36">
<circle cx="20" cy="20" r="18" fill="#C39D6B"/>
</mask>
<g mask="url(#mask0)">
<path d="M15.5222 22.9758L15.5223 22.9759L16.235 23.4266L15.4261 23.7417C10.451 25.4935 7.03296 30.0648 6.75041 34.9857L6.73523 35.25H7H7.90673H8.14254L8.1563 35.0146C8.50642 29.0249 13.6736 24.3619 19.9998 24.3619C26.3259 24.3619 31.4936 29.0249 31.8437 35.0146L31.8575 35.25H32.0933H33H33.2647L33.2496 34.9857C32.9675 30.0642 29.5486 25.4923 24.5719 23.741L23.769 23.4434L24.4778 22.9872C24.478 22.9871 24.4782 22.9869 24.4785 22.9868C26.7599 21.5422 28.1281 19.1193 28.1281 16.5122C28.1281 12.2224 24.4708 8.75 20.0002 8.75C15.5299 8.75 11.8719 12.2174 11.8719 16.5074C11.8719 19.1149 13.2406 21.5314 15.5222 22.9758ZM13.2781 16.506C13.2781 12.9908 16.2826 10.1107 20.0002 10.1107C23.7183 10.1107 26.7223 12.9912 26.7223 16.506C26.7223 20.0209 23.7179 22.9014 20.0002 22.9014C16.2821 22.9014 13.2781 20.0209 13.2781 16.506Z" fill="#30261D" stroke="#30261D" stroke-width="0.5"/>
</g>
</svg>
