<svg width="124" height="80" viewBox="0 0 124 80" fill="none" xmlns="http://www.w3.org/2000/svg">
<g clip-path="url(#clip0)">
<path d="M50.4331 72.8654C49.6469 72.078 49.2532 71.0728 49.2532 69.8585C49.2532 68.6442 49.6469 67.6439 50.4331 66.8627C51.2192 66.0814 52.2133 65.6718 53.4055 65.6718C54.284 65.6718 55.0357 65.8686 55.6718 66.2734V67.1518C55.0021 66.7105 54.2185 66.4737 53.4166 66.4702C52.9794 66.4603 52.5449 66.5414 52.1407 66.7085C51.7366 66.8757 51.3716 67.1251 51.0691 67.4409C50.4331 68.077 50.1206 68.8866 50.1206 69.8585C50.1206 70.8305 50.4331 71.6511 51.0691 72.2872C51.3783 72.5999 51.748 72.8463 52.1557 73.0113C52.5633 73.1763 53.0003 73.2564 53.44 73.2468C54.3122 73.2697 55.1644 72.9829 55.8452 72.4373V73.3268C55.1858 73.8017 54.3762 74.044 53.4055 74.044C52.2133 74.044 51.2303 73.6516 50.4331 72.8654Z" fill="#30261D"/>
<path d="M60.5869 73.9063L64.1954 65.764H64.9926L68.6122 73.9063H67.7104L66.704 71.6732H62.4606L61.4764 73.9063H60.5869ZM62.7461 70.9215H66.4235L64.5916 66.8393L62.7461 70.9215Z" fill="#30261D"/>
<path d="M73.91 73.9063V65.8108H79.4255V66.5859H74.765V69.2803H78.547V70.0554H74.765V73.9063H73.91Z" fill="#30261D"/>
<path d="M84.9188 73.9063V65.8108H90.47V66.5859H85.7751V69.1696H89.626V69.9447H85.7751V73.125H90.6435V73.9001L84.9188 73.9063Z" fill="#30261D"/>
<path fill-rule="evenodd" clip-rule="evenodd" d="M18.4547 2.21457V0H43.061V44.2077C43.061 44.7686 43.0561 45.3213 43.0459 45.8656C43.8308 45.8754 44.4857 45.9883 45.2024 46.1118C45.4554 46.1555 45.7161 46.2004 45.9929 46.2426C47.5362 46.4571 49.0915 46.5739 50.6496 46.592C51.4456 46.592 52.4717 46.5514 53.7254 46.4579C55.0507 46.3611 56.3698 46.1935 57.6772 45.9559C59.0617 45.7115 60.4688 45.3994 61.8984 45.0197C63.2234 44.6794 64.5036 44.1838 65.7123 43.5433C66.7513 43.0021 67.6821 42.2749 68.4584 41.3976C68.7792 41.0344 69.0333 40.6229 69.2138 40.182C69.2143 39.3894 69.2961 38.5492 69.459 37.6615C69.2849 36.6949 68.8066 35.7416 68.0241 34.8019C66.8922 33.4675 65.6479 32.2327 64.3049 31.111C62.8318 29.8634 61.2131 28.579 59.4488 27.2576C57.724 25.9775 56.1001 24.5667 54.5915 23.0376C53.1543 21.5929 51.9047 19.973 50.8723 18.216C49.8747 16.5204 49.3544 14.5866 49.3664 12.6193C49.3647 10.8788 49.7667 9.34957 50.5721 8.03149C51.3898 6.6981 52.4727 5.54692 53.7537 4.64936C55.1359 3.67458 56.6468 2.89655 58.2431 2.3376C59.7947 1.78078 61.3843 1.3359 62.9995 1.0064C63.061 0.995323 63.1225 0.98302 63.1841 0.970717C63.2456 0.958414 63.3071 0.946111 63.3686 0.935038C65.0742 0.60515 66.7969 0.370208 68.5285 0.231298C70.2247 0.0967835 71.7196 0.0295263 73.013 0.0295263C73.7408 0.0357782 74.4678 0.0809542 75.1907 0.164861C76.0017 0.250734 76.7998 0.431176 77.5689 0.702508C78.2854 0.943124 78.9382 1.34269 79.4783 1.87131C79.9963 2.38681 80.251 3.06717 80.2534 3.92101C80.2554 4.76582 80.0718 5.60075 79.7158 6.36688C79.3664 7.1406 78.8643 7.83571 78.2394 8.41043C77.8604 8.7815 77.4486 9.11752 77.0091 9.41437C76.4936 9.77239 75.956 10.1083 75.4011 10.422C74.8556 10.7285 74.2842 10.9862 73.6934 11.1922C73.1996 11.3764 72.6787 11.4778 72.1518 11.4924C71.6927 11.5049 71.2471 11.3361 70.9117 11.0224C70.795 10.916 70.6965 10.7914 70.6201 10.6533C70.4751 10.3979 70.4024 10.1078 70.4097 9.81422C70.4109 9.51064 70.483 9.21154 70.6201 8.94069C70.7476 8.67214 70.9134 8.42349 71.1122 8.20251C71.5773 7.66978 72.0731 7.1469 72.6107 6.63139C73.1484 6.11589 73.6491 5.60777 74.1203 5.12057C74.5915 4.63336 74.8241 4.11786 74.8241 3.58021C74.833 3.42287 74.8004 3.26595 74.7296 3.12516C74.6587 2.98438 74.5522 2.86468 74.4205 2.77805C74.1366 2.59304 73.8181 2.46748 73.4843 2.40895C73.1289 2.34241 72.7698 2.29763 72.409 2.27485C72.0546 2.2527 71.7643 2.23917 71.5404 2.23917C71.0482 2.23917 70.5561 2.2527 70.064 2.26993C69.7995 2.27977 69.5312 2.29207 69.2667 2.30561C68.5022 2.35375 67.741 2.44576 66.987 2.5812C65.7715 2.80415 64.5824 3.15255 63.4387 3.62081C62.1377 4.13788 60.8995 4.80073 59.7478 5.5967C58.6323 6.35943 57.6486 7.29901 56.8356 8.37844C56.0745 9.36548 55.6617 10.5769 55.6619 11.8233C55.6611 13.2095 56.1233 14.5489 57.0485 15.8415C58.0622 17.25 59.2164 18.5518 60.4934 19.7269C61.8762 21.022 63.3834 22.3167 65.0148 23.611C66.6086 24.877 68.12 26.2434 69.5399 27.7018C69.9163 28.0918 70.2793 28.4855 70.6201 28.889C71.1017 29.4447 71.5561 30.0229 71.982 30.6216C72.65 29.3247 73.4096 28.0755 74.2557 26.8836C75.697 24.8187 77.4574 22.996 79.471 21.4837C79.8253 21.2217 80.1833 20.9793 80.5426 20.7652C82.1715 19.7994 83.8533 19.3073 85.5992 19.3073C86.1319 19.3073 86.6708 19.5497 87.1986 20.0344C87.7264 20.5192 87.9934 21.0224 87.9934 21.5563C88.0008 21.6574 87.9851 21.7588 87.9474 21.8529C87.9096 21.9469 87.8509 22.0311 87.7756 22.0989C87.6208 22.2266 87.4515 22.3356 87.2712 22.4237C85.9646 23.1988 84.7203 24.0084 83.5384 24.8523C82.4719 25.6174 81.4722 26.4714 80.55 27.4052C80.4134 27.5357 80.2904 27.6661 80.1673 27.7977C78.3133 29.6897 76.7936 31.8824 75.673 34.2827C74.5569 36.7033 73.9877 39.34 74.0059 42.0054C74.0155 42.3716 74.0642 42.7358 74.1511 43.0918C74.2483 43.5273 74.5153 43.7463 74.9508 43.7463C75.4798 43.7463 76.0851 43.4116 76.7594 42.762C77.5306 42.0017 78.2345 41.1759 78.8632 40.294C79.4373 39.514 80.0008 38.6622 80.5536 37.7387C80.7037 37.486 80.8538 37.2289 81.0039 36.9673C81.7077 35.732 82.372 34.5386 83.002 33.376C83.6327 32.2186 84.1757 31.1442 84.6309 30.1525C85.0861 29.1609 85.4368 28.4227 85.6828 27.938C85.9237 27.4072 86.2277 26.9073 86.5883 26.4493C86.9476 25.9941 87.4668 25.7615 88.1447 25.7615C88.53 25.7612 88.9118 25.8351 89.2692 25.9793C89.6334 26.1245 89.813 26.4395 89.813 26.9242C89.813 27.4532 89.6358 28.1496 89.3012 29.0231C88.9665 29.8966 88.6996 30.5942 88.5064 31.1269C88.1112 32.4408 87.8361 33.7877 87.6845 35.1513C87.5212 36.4862 87.437 37.8296 87.4323 39.1744C87.4323 39.5608 87.4422 40.139 87.4668 40.9141C87.4891 41.7029 87.5714 42.4889 87.7128 43.2652C87.8367 43.9967 88.0685 44.7057 88.4006 45.3691C88.7156 45.9756 89.1671 46.2758 89.7429 46.2758C90.6147 46.2742 91.5814 45.8883 92.6427 45.1181C93.7531 44.2984 94.7927 43.3868 95.7505 42.3929C96.7538 41.3727 97.6985 40.2965 98.5802 39.1695C99.3341 38.2061 99.9217 37.4091 100.349 36.772C101.215 32.4768 102.586 27.5362 103.102 26.5772C103.359 26.0702 103.703 25.6122 104.118 25.2239C104.528 24.8622 105.048 24.6813 105.678 24.6813C106.035 24.6698 106.391 24.7311 106.723 24.8616C107.056 24.9922 107.358 25.1891 107.612 25.4404C108.199 25.983 107.915 27.3917 107.581 28.1065C106.145 31.1712 104.167 37.3339 103.716 40.2866C103.132 44.1006 104.391 44.6666 104.754 44.6666C105.025 44.6666 105.396 44.5226 105.838 44.1917C108.801 41.9754 113.044 35.349 115.76 31.1066C116.774 29.5227 117.575 28.2711 118.018 27.7054C118.1 27.6116 118.189 27.5033 118.285 27.3871C118.558 27.0553 118.884 26.6592 119.248 26.3521C119.653 25.9836 120.178 25.775 120.725 25.7652C121.176 25.7652 121.756 25.8181 122.143 26.1774C122.56 26.5898 122.829 27.1282 122.908 27.7091C123.076 28.7265 123.051 30.581 123.037 31.6361C123.034 31.8646 123.031 32.0555 123.031 32.1924C123.031 32.9614 123.02 42.8703 122.908 46.0556C122.797 49.2409 122.596 52.4175 122.121 55.5598C121.653 58.6705 120.95 61.7415 120.02 64.7465C119.109 67.6906 117.797 70.4951 116.121 73.0807C115.547 73.9793 114.901 74.8294 114.189 75.6225C113.465 76.4385 112.658 77.1769 111.781 77.826C110.925 78.46 109.992 78.9853 109.006 79.3897C108.017 79.7976 106.957 80.0066 105.887 80.0049C104.845 80.0016 103.963 79.7851 103.239 79.3553C102.534 78.9422 101.931 78.3743 101.476 77.6944C101.009 76.9813 100.676 76.1892 100.492 75.3568C100.289 74.4784 100.187 73.5798 100.187 72.6784C100.187 70.4179 100.786 68.1807 101.984 65.967C103.216 63.7022 104.718 61.5953 106.458 59.6924C108.239 57.7301 110.165 55.9056 112.222 54.2347C114.051 52.728 115.964 51.3249 117.95 50.032C117.995 49.3996 118.017 48.7668 118.018 48.1336V46.1651C118.018 45.0054 118.036 43.5987 118.056 42.1078C118.095 39.1256 118.138 35.8068 118.047 33.4559C117.505 34.4045 112.542 43.0524 107.467 46.4358C105.875 47.4963 104.391 47.8506 103.26 47.8506C102.492 47.8506 101.87 47.6812 101.396 47.3425C100.926 47.0083 100.542 46.5661 100.278 46.0531C99.9964 45.5019 99.8131 44.9056 99.7367 44.2913C99.6579 43.6725 99.6127 43.0499 99.6014 42.4262C99.5999 42.3801 99.599 42.3326 99.5986 42.284C98.6456 43.463 97.6118 44.5744 96.5047 45.6102C95.4089 46.6469 94.1929 47.5485 92.8826 48.296C91.5982 49.0133 90.3334 49.3824 89.0773 49.3824C87.8654 49.3824 86.9008 48.9604 86.1737 48.1114C85.422 47.2172 84.8554 46.1826 84.5066 45.0676C84.1203 43.8703 83.8779 42.6313 83.7844 41.3767C83.6911 40.3033 83.6668 39.2249 83.7119 38.1484C83.2271 38.8742 82.612 39.7806 81.8664 40.8674C81.4489 41.4727 81.0076 42.0624 80.5426 42.6365C80.1698 43.1016 79.7761 43.5679 79.3652 44.0182C78.5002 44.9832 77.5402 45.8587 76.4997 46.6314C75.5106 47.3548 74.5313 47.8469 73.5667 47.8469C72.6944 47.8469 71.9722 47.4508 71.3903 46.9217C70.8019 46.3775 70.3433 45.7081 70.048 44.9631C70.023 44.9012 69.9987 44.8391 69.975 44.7769C69.9389 44.8017 69.9025 44.8265 69.8659 44.8511C68.4499 45.7801 66.9199 46.5224 65.3137 47.0595C63.6064 47.644 61.8588 48.1037 60.0849 48.435C58.3789 48.7574 56.6575 48.9923 54.9274 49.1388C53.2739 49.2729 51.7999 49.3356 50.5044 49.3356C49.3219 49.3359 48.1402 49.271 46.9648 49.1412C46.6958 49.0961 46.2832 49.0514 45.7271 49.0071C45.1644 48.9609 44.6049 48.8816 44.0514 48.7697C43.6737 48.6986 43.3061 48.5834 42.9561 48.4267C42.5276 56.552 40.7404 62.623 36.7692 66.6375C32.1383 71.3189 26.656 73.8779 17.3991 73.8779C11.2488 73.8779 7.95645 72.8506 4.71826 70.1205C1.42101 67.3388 0 63.7143 0 59.4513C0 54.7342 3.07948 49.2704 9.23105 49.2704C15.3826 49.2704 18.4584 52.329 18.4584 57.7596C18.4584 62.2908 16.2057 64.0206 12.9749 64.6161L12.964 64.6345C12.2904 65.7622 11.9131 66.394 11.9131 67.7694C11.9131 68.7992 12.6489 69.8068 13.675 70.5216C14.701 71.2364 16.0052 71.6055 17.6735 71.6055C20.7099 71.6055 22.3794 70.3211 23.456 68.0069C24.6069 65.5333 24.6067 60.5899 24.6063 52.8393L24.6063 9.31594C24.6063 3.30709 23.9407 2.21457 18.9911 2.21457H18.4547ZM108.259 61.592C109.696 59.9058 111.259 58.331 112.934 56.8811V56.8824C114.606 55.4355 116.167 54.1244 117.618 52.949C117.452 54.6218 117.201 56.2849 116.864 57.9318C116.502 59.7617 116.062 61.6035 115.543 63.4572C115.037 65.2657 114.426 67.0429 113.712 68.7795C113.009 70.474 112.206 71.9094 111.304 73.0856C110.992 73.4924 110.63 73.9329 110.22 74.407C109.814 74.881 109.372 75.3232 108.898 75.7295C108.441 76.1244 107.941 76.4657 107.406 76.747C106.918 77.0089 106.373 77.1479 105.818 77.1518C105.276 77.151 104.836 77.0042 104.497 76.7113C104.153 76.4105 103.875 76.0408 103.682 75.6262C103.473 75.1759 103.336 74.6955 103.276 74.2027C103.213 73.742 103.179 73.2776 103.174 72.8125C103.173 70.8235 103.659 68.88 104.632 66.982C105.626 65.0496 106.843 63.2406 108.259 61.592Z" fill="#30261D"/>
</g>
<defs>
<clipPath id="clip0">
<rect width="123.047" height="80" fill="white"/>
</clipPath>
</defs>
</svg>
