<svg width="11" height="20" viewBox="0 0 11 20" fill="none" xmlns="http://www.w3.org/2000/svg">
<path d="M2.32329 20H8.67673C8.99901 20 9.26025 19.7293 9.26025 19.3953C9.26025 19.0613 8.99901 18.7906 8.67673 18.7906H2.32329C2.00101 18.7906 1.73977 19.0613 1.73977 19.3953C1.73977 19.7292 2.00101 20 2.32329 20Z" fill="#30261D"/>
<path d="M5.50001 20C5.82229 20 6.08353 19.7293 6.08353 19.3953V14.4413C6.08353 14.1073 5.82226 13.8366 5.50001 13.8366C5.17775 13.8366 4.91649 14.1073 4.91649 14.4413V19.3953C4.91649 19.7293 5.17775 20 5.50001 20Z" fill="#30261D"/>
<path d="M5.46825 12.2778H5.53178C7.26868 12.2778 8.67673 10.8187 8.67673 9.0188V3.25902C8.67673 1.45912 7.2687 0 5.53178 0H5.46825C3.73135 0 2.3233 1.45912 2.3233 3.25902V9.0188C2.3233 10.8187 3.73135 12.2778 5.46825 12.2778Z" fill="#30261D"/>
<path d="M5.46824 14.6854H5.53176C6.99236 14.6854 8.36556 14.096 9.39839 13.0257C10.4312 11.9554 11 10.5324 11 9.01882C11 8.68488 10.7388 8.41414 10.4165 8.41414C10.0942 8.41414 9.83296 8.68488 9.83296 9.01882C9.83296 10.2094 9.38555 11.3287 8.57317 12.1705C7.76078 13.0124 6.68064 13.4761 5.53176 13.4761H5.46824C4.31936 13.4761 3.23922 13.0124 2.42683 12.1706C1.61445 11.3287 1.16704 10.2094 1.16704 9.01884C1.16704 8.68488 0.905777 8.41416 0.58352 8.41416C0.261242 8.41416 0 8.6849 0 9.01884C0 10.5324 0.568795 11.9554 1.60161 13.0257C2.63443 14.096 4.00762 14.6854 5.46824 14.6854Z" fill="#30261D"/>
</svg>
